<svg width="93" height="21" viewBox="0 0 93 21" fill="none" xmlns="http://www.w3.org/2000/svg">
<path d="M16.4006 5.95526L12.299 6.4027C12.183 5.9884 11.98 5.59896 11.69 5.23438C11.4083 4.86979 11.0271 4.57564 10.5465 4.35192C10.0659 4.1282 9.47763 4.01633 8.78161 4.01633C7.84529 4.01633 7.05812 4.21934 6.4201 4.62535C5.79036 5.03137 5.47964 5.55753 5.48793 6.20383C5.47964 6.759 5.68265 7.21058 6.09695 7.55859C6.51953 7.9066 7.21555 8.19247 8.18501 8.41619L11.4414 9.11222C13.2478 9.50166 14.5901 10.119 15.4684 10.9641C16.355 11.8093 16.8024 12.9155 16.8107 14.2827C16.8024 15.4841 16.4503 16.5447 15.7543 17.4645C15.0665 18.3759 14.1095 19.0885 12.8832 19.6023C11.6568 20.116 10.2482 20.3729 8.65732 20.3729C6.32067 20.3729 4.43975 19.884 3.01456 18.9062C1.58937 17.9202 0.740057 16.5489 0.466619 14.7923L4.85405 14.3697C5.05291 15.2314 5.4755 15.8819 6.1218 16.321C6.76811 16.7602 7.60914 16.9798 8.64489 16.9798C9.71378 16.9798 10.5714 16.7602 11.2177 16.321C11.8723 15.8819 12.1996 15.3391 12.1996 14.6928C12.1996 14.146 11.9883 13.6944 11.5657 13.3381C11.1514 12.9818 10.5051 12.7083 9.62678 12.5178L6.37038 11.8342C4.53918 11.453 3.18442 10.8108 2.30611 9.90767C1.42779 8.99621 0.992779 7.84446 1.00107 6.45241C0.992779 5.2758 1.31179 4.25663 1.9581 3.39489C2.61269 2.52486 3.52 1.85369 4.68004 1.38139C5.84837 0.900805 7.19484 0.660512 8.71946 0.660512C10.9567 0.660512 12.7174 1.13696 14.0018 2.08984C15.2944 3.04273 16.094 4.3312 16.4006 5.95526ZM28.9725 20.3729C27.0584 20.3729 25.4054 19.9751 24.0133 19.1797C22.6296 18.3759 21.5648 17.2408 20.8191 15.7741C20.0733 14.2992 19.7005 12.5633 19.7005 10.5664C19.7005 8.60263 20.0733 6.87914 20.8191 5.39595C21.5731 3.90447 22.6254 2.74444 23.976 1.91584C25.3266 1.07895 26.9134 0.660512 28.7363 0.660512C29.9129 0.660512 31.0233 0.851089 32.0673 1.23224C33.1196 1.60511 34.0476 2.18513 34.8514 2.9723C35.6634 3.75947 36.3014 4.76207 36.7654 5.98011C37.2295 7.18987 37.4615 8.63163 37.4615 10.3054V11.685H21.8134V8.65234H33.1486C33.1403 7.7906 32.9539 7.02415 32.5893 6.35298C32.2247 5.67353 31.7151 5.13909 31.0605 4.74964C30.4142 4.3602 29.6602 4.16548 28.7985 4.16548C27.8787 4.16548 27.0708 4.3892 26.3748 4.83665C25.6788 5.2758 25.1361 5.85582 24.7466 6.5767C24.3655 7.2893 24.1708 8.07232 24.1625 8.92578V11.5732C24.1625 12.6835 24.3655 13.6364 24.7715 14.4318C25.1775 15.219 25.7451 15.8239 26.4743 16.2464C27.2034 16.6607 28.0569 16.8679 29.0346 16.8679C29.6892 16.8679 30.2817 16.7768 30.812 16.5945C31.3423 16.4039 31.8021 16.1263 32.1916 15.7617C32.581 15.3971 32.8752 14.9455 33.074 14.407L37.275 14.8793C37.0099 15.9896 36.5044 16.959 35.7587 17.7876C35.0212 18.608 34.0766 19.246 32.9249 19.7017C31.7731 20.1491 30.4557 20.3729 28.9725 20.3729ZM41.2678 20V0.90909H45.6304V4.09091H45.8293C46.1773 2.98887 46.7739 2.13956 47.6191 1.54297C48.4725 0.938091 49.4461 0.635653 50.5399 0.635653C50.7884 0.635653 51.066 0.648082 51.3726 0.672939C51.6875 0.689511 51.9485 0.718512 52.1556 0.759942V4.89879C51.9651 4.8325 51.6626 4.7745 51.2483 4.72479C50.8423 4.66678 50.4487 4.63778 50.0676 4.63778C49.2472 4.63778 48.5098 4.81593 47.8552 5.17223C47.2089 5.52024 46.6993 6.00497 46.3264 6.62642C45.9536 7.24787 45.7671 7.96461 45.7671 8.77663V20H41.2678ZM72.7784 0.90909L65.9798 20H61.0082L54.2095 0.90909H59.0071L63.3945 15.0906H63.5934L67.9933 0.90909H72.7784ZM83.5699 20.3729C81.7055 20.3729 80.0898 19.9627 78.7226 19.1424C77.3554 18.3221 76.2948 17.1745 75.5407 15.6996C74.795 14.2247 74.4221 12.5012 74.4221 10.5291C74.4221 8.55705 74.795 6.82943 75.5407 5.34624C76.2948 3.86304 77.3554 2.71129 78.7226 1.89098C80.0898 1.07067 81.7055 0.660512 83.5699 0.660512C85.4342 0.660512 87.05 1.07067 88.4172 1.89098C89.7844 2.71129 90.8408 3.86304 91.5866 5.34624C92.3406 6.82943 92.7176 8.55705 92.7176 10.5291C92.7176 12.5012 92.3406 14.2247 91.5866 15.6996C90.8408 17.1745 89.7844 18.3221 88.4172 19.1424C87.05 19.9627 85.4342 20.3729 83.5699 20.3729ZM83.5947 16.7685C84.6056 16.7685 85.4508 16.4909 86.1302 15.9357C86.8097 15.3723 87.3151 14.6183 87.6466 13.6737C87.9863 12.729 88.1562 11.6767 88.1562 10.5167C88.1562 9.34837 87.9863 8.2919 87.6466 7.3473C87.3151 6.39441 86.8097 5.63625 86.1302 5.0728C85.4508 4.50935 84.6056 4.22763 83.5947 4.22763C82.559 4.22763 81.6972 4.50935 81.0095 5.0728C80.33 5.63625 79.8205 6.39441 79.4807 7.3473C79.1493 8.2919 78.9836 9.34837 78.9836 10.5167C78.9836 11.6767 79.1493 12.729 79.4807 13.6737C79.8205 14.6183 80.33 15.3723 81.0095 15.9357C81.6972 16.4909 82.559 16.7685 83.5947 16.7685Z" fill="white"/>
</svg>
